<svg xmlns="http://www.w3.org/2000/svg" width="1440" height="900"><path d="M810,460L768,564L929,534Z" fill="#32af4c" stroke="#32af4c" stroke-width="1.51"/><path d="M925,684L968,569L929,534Z" fill="#329b47" stroke="#329b47" stroke-width="1.51"/><path d="M929,534L920,425L810,460Z" fill="#33b14c" stroke="#33b14c" stroke-width="1.51"/><path d="M1009,431L920,425L929,534Z" fill="#32ac4b" stroke="#32ac4b" stroke-width="1.51"/><path d="M768,564L925,684L929,534Z" fill="#32a149" stroke="#32a149" stroke-width="1.51"/><path d="M619,417L708,596L768,564Z" fill="#32b64c" stroke="#32b64c" stroke-width="1.51"/><path d="M762,720L925,684L768,564Z" fill="#329e48" stroke="#329e48" stroke-width="1.51"/><path d="M920,425L889,367L810,460Z" fill="#31af4b" stroke="#31af4b" stroke-width="1.51"/><path d="M708,596L695,637L768,564Z" fill="#32ad4b" stroke="#32ad4b" stroke-width="1.51"/><path d="M968,569L1009,431L929,534Z" fill="#32a54a" stroke="#32a54a" stroke-width="1.51"/><path d="M920,425L1021,363L889,367Z" fill="#31a348" stroke="#31a348" stroke-width="1.51"/><path d="M695,637L762,720L768,564Z" fill="#33a64a" stroke="#33a64a" stroke-width="1.51"/><path d="M925,684L1026,663L968,569Z" fill="#329346" stroke="#329346" stroke-width="1.51"/><path d="M968,569L1082,541L1009,431Z" fill="#32a049" stroke="#32a049" stroke-width="1.51"/><path d="M1027,750L1026,663L925,684Z" fill="#328a44" stroke="#328a44" stroke-width="1.51"/><path d="M1026,663L1082,541L968,569Z" fill="#329547" stroke="#329547" stroke-width="1.51"/><path d="M1015,260L820,297L889,367Z" fill="#309943" stroke="#309943" stroke-width="1.51"/><path d="M889,367L820,297L810,460Z" fill="#30aa48" stroke="#30aa48" stroke-width="1.51"/><path d="M810,460L619,417L768,564Z" fill="#32bd4f" stroke="#32bd4f" stroke-width="1.51"/><path d="M1009,431L1021,363L920,425Z" fill="#31a448" stroke="#31a448" stroke-width="1.51"/><path d="M1095,478L1021,363L1009,431Z" fill="#32a248" stroke="#32a248" stroke-width="1.51"/><path d="M1082,541L1095,478L1009,431Z" fill="#32a149" stroke="#32a149" stroke-width="1.51"/><path d="M693,315L619,417L810,460Z" fill="#31b84b" stroke="#31b84b" stroke-width="1.51"/><path d="M708,596L545,648L695,637Z" fill="#32a248" stroke="#32a248" stroke-width="1.51"/><path d="M762,720L847,794L925,684Z" fill="#339346" stroke="#339346" stroke-width="1.51"/><path d="M820,297L693,315L810,460Z" fill="#31ad48" stroke="#31ad48" stroke-width="1.51"/><path d="M1026,663L1110,725L1082,541Z" fill="#328a44" stroke="#328a44" stroke-width="1.51"/><path d="M847,794L1027,750L925,684Z" fill="#328b44" stroke="#328b44" stroke-width="1.51"/><path d="M762,720L783,829L847,794Z" fill="#339246" stroke="#339246" stroke-width="1.51"/><path d="M847,794L996,907L1027,750Z" fill="#318242" stroke="#318242" stroke-width="1.51"/><path d="M754,869L783,829L630,830Z" fill="#349346" stroke="#349346" stroke-width="1.51"/><path d="M500,443L529,525L619,417Z" fill="#30ae48" stroke="#30ae48" stroke-width="1.51"/><path d="M820,297L747,234L693,315Z" fill="#2fa244" stroke="#2fa244" stroke-width="1.51"/><path d="M862,184L747,234L820,297Z" fill="#2f9541" stroke="#2f9541" stroke-width="1.51"/><path d="M619,417L529,525L708,596Z" fill="#31ae4a" stroke="#31ae4a" stroke-width="1.51"/><path d="M695,637L630,830L762,720Z" fill="#339b47" stroke="#339b47" stroke-width="1.51"/><path d="M567,351L619,417L693,315Z" fill="#30a746" stroke="#30a746" stroke-width="1.51"/><path d="M529,525L545,648L708,596Z" fill="#31a147" stroke="#31a147" stroke-width="1.51"/><path d="M1021,363L1015,260L889,367Z" fill="#309744" stroke="#309744" stroke-width="1.51"/><path d="M1154,303L1015,260L1021,363Z" fill="#2f8c41" stroke="#2f8c41" stroke-width="1.51"/><path d="M1027,750L1110,725L1026,663Z" fill="#318343" stroke="#318343" stroke-width="1.51"/><path d="M1082,541L1253,593L1095,478Z" fill="#329446" stroke="#329446" stroke-width="1.51"/><path d="M1123,770L1110,725L1027,750Z" fill="#317d42" stroke="#317d42" stroke-width="1.51"/><path d="M650,234L567,351L693,315Z" fill="#2f9e43" stroke="#2f9e43" stroke-width="1.51"/><path d="M783,829L850,873L847,794Z" fill="#338b44" stroke="#338b44" stroke-width="1.51"/><path d="M783,829L754,869L850,873Z" fill="#338c44" stroke="#338c44" stroke-width="1.51"/><path d="M630,830L783,829L762,720Z" fill="#339747" stroke="#339747" stroke-width="1.51"/><path d="M1015,260L862,184L820,297Z" fill="#2f8f40" stroke="#2f8f40" stroke-width="1.51"/><path d="M529,525L432,574L545,648Z" fill="#2f9843" stroke="#2f9843" stroke-width="1.51"/><path d="M567,351L500,443L619,417Z" fill="#30a846" stroke="#30a846" stroke-width="1.51"/><path d="M747,234L650,234L693,315Z" fill="#2f9e42" stroke="#2f9e42" stroke-width="1.51"/><path d="M567,351L445,335L500,443Z" fill="#2f9d42" stroke="#2f9d42" stroke-width="1.51"/><path d="M748,136L650,234L747,234Z" fill="#349d46" stroke="#349d46" stroke-width="1.51"/><path d="M1110,725L1215,633L1082,541Z" fill="#328744" stroke="#328744" stroke-width="1.51"/><path d="M996,907L1123,770L1027,750Z" fill="#307b41" stroke="#307b41" stroke-width="1.51"/><path d="M543,791L630,830L695,637Z" fill="#319244" stroke="#319244" stroke-width="1.51"/><path d="M1123,770L1215,633L1110,725Z" fill="#317e41" stroke="#317e41" stroke-width="1.51"/><path d="M1095,478L1154,303L1021,363Z" fill="#319745" stroke="#319745" stroke-width="1.51"/><path d="M1268,434L1154,303L1095,478Z" fill="#329646" stroke="#329646" stroke-width="1.51"/><path d="M1015,260L880,107L862,184Z" fill="#379046" stroke="#379046" stroke-width="1.51"/><path d="M545,648L543,791L695,637Z" fill="#319444" stroke="#319444" stroke-width="1.51"/><path d="M445,697L543,791L545,648Z" fill="#308940" stroke="#308940" stroke-width="1.51"/><path d="M850,873L996,907L847,794Z" fill="#328342" stroke="#328342" stroke-width="1.51"/><path d="M861,1002L996,907L850,873Z" fill="#327f41" stroke="#327f41" stroke-width="1.51"/><path d="M880,107L748,136L862,184Z" fill="#3f9e4f" stroke="#3f9e4f" stroke-width="1.51"/><path d="M862,184L748,136L747,234Z" fill="#379b48" stroke="#379b48" stroke-width="1.51"/><path d="M1215,633L1253,593L1082,541Z" fill="#318a44" stroke="#318a44" stroke-width="1.51"/><path d="M1322,562L1253,593L1335,635Z" fill="#318242" stroke="#318242" stroke-width="1.51"/><path d="M500,443L432,574L529,525Z" fill="#309f44" stroke="#309f44" stroke-width="1.51"/><path d="M1035,86L880,107L1015,260Z" fill="#3c904b" stroke="#3c904b" stroke-width="1.51"/><path d="M432,574L445,697L545,648Z" fill="#308d41" stroke="#308d41" stroke-width="1.51"/><path d="M1154,303L1116,196L1015,260Z" fill="#2e803d" stroke="#2e803d" stroke-width="1.51"/><path d="M1253,593L1268,434L1095,478Z" fill="#339446" stroke="#339446" stroke-width="1.51"/><path d="M1154,303L1223,223L1116,196Z" fill="#2e7a3c" stroke="#2e7a3c" stroke-width="1.51"/><path d="M546,83L513,254L650,234Z" fill="#348f42" stroke="#348f42" stroke-width="1.51"/><path d="M650,234L513,254L567,351Z" fill="#2e943f" stroke="#2e943f" stroke-width="1.51"/><path d="M500,443L390,447L432,574Z" fill="#2f9e43" stroke="#2f9e43" stroke-width="1.51"/><path d="M474,784L565,871L543,791Z" fill="#30813f" stroke="#30813f" stroke-width="1.51"/><path d="M543,791L565,871L630,830Z" fill="#318540" stroke="#318540" stroke-width="1.51"/><path d="M630,830L620,943L754,869Z" fill="#338a43" stroke="#338a43" stroke-width="1.51"/><path d="M754,869L804,999L850,873Z" fill="#338743" stroke="#338743" stroke-width="1.51"/><path d="M445,697L474,784L543,791Z" fill="#2f823e" stroke="#2f823e" stroke-width="1.51"/><path d="M513,254L445,335L567,351Z" fill="#2d923e" stroke="#2d923e" stroke-width="1.51"/><path d="M445,335L390,447L500,443Z" fill="#2e9c42" stroke="#2e9c42" stroke-width="1.51"/><path d="M432,574L323,698L445,697Z" fill="#2e833d" stroke="#2e833d" stroke-width="1.51"/><path d="M703,1037L804,999L754,869Z" fill="#338b44" stroke="#338b44" stroke-width="1.51"/><path d="M565,871L620,943L630,830Z" fill="#328341" stroke="#328341" stroke-width="1.51"/><path d="M443,937L620,943L565,871Z" fill="#307b3e" stroke="#307b3e" stroke-width="1.51"/><path d="M804,999L861,1002L850,873Z" fill="#328442" stroke="#328442" stroke-width="1.51"/><path d="M1268,434L1278,345L1154,303Z" fill="#318a42" stroke="#318a42" stroke-width="1.51"/><path d="M1365,379L1278,345L1268,434Z" fill="#318a42" stroke="#318a42" stroke-width="1.51"/><path d="M1253,593L1322,562L1268,434Z" fill="#328d45" stroke="#328d45" stroke-width="1.51"/><path d="M1335,635L1253,593L1215,633Z" fill="#328142" stroke="#328142" stroke-width="1.51"/><path d="M1275,787L1215,633L1123,770Z" fill="#317941" stroke="#317941" stroke-width="1.51"/><path d="M1130,65L1035,86L1116,196Z" fill="#428c4f" stroke="#428c4f" stroke-width="1.51"/><path d="M1116,196L1035,86L1015,260Z" fill="#368544" stroke="#368544" stroke-width="1.51"/><path d="M1278,345L1223,223L1154,303Z" fill="#2f7f3e" stroke="#2f7f3e" stroke-width="1.51"/><path d="M1152,954L1275,787L1123,770Z" fill="#30703e" stroke="#30703e" stroke-width="1.51"/><path d="M1152,954L1123,770L996,907Z" fill="#30723f" stroke="#30723f" stroke-width="1.51"/><path d="M1275,787L1335,635L1215,633Z" fill="#317841" stroke="#317841" stroke-width="1.51"/><path d="M861,1002L966,1022L996,907Z" fill="#317b41" stroke="#317b41" stroke-width="1.51"/><path d="M703,1037L966,1022L861,1002Z" fill="#328342" stroke="#328342" stroke-width="1.51"/><path d="M1424,537L1356,475L1322,562Z" fill="#328843" stroke="#328843" stroke-width="1.51"/><path d="M1322,562L1356,475L1268,434Z" fill="#339045" stroke="#339045" stroke-width="1.51"/><path d="M1316,177L1218,149L1223,223Z" fill="#347841" stroke="#347841" stroke-width="1.51"/><path d="M748,136L630,68L650,234Z" fill="#3fa24f" stroke="#3fa24f" stroke-width="1.51"/><path d="M513,254L413,243L445,335Z" fill="#2c863a" stroke="#2c863a" stroke-width="1.51"/><path d="M752,7L630,68L748,136Z" fill="#4fb35e" stroke="#4fb35e" stroke-width="1.51"/><path d="M752,7L748,136L880,107Z" fill="#4cab5b" stroke="#4cab5b" stroke-width="1.51"/><path d="M966,1022L1152,954L996,907Z" fill="#30743f" stroke="#30743f" stroke-width="1.51"/><path d="M620,943L703,1037L754,869Z" fill="#338b44" stroke="#338b44" stroke-width="1.51"/><path d="M804,999L703,1037L861,1002Z" fill="#338844" stroke="#338844" stroke-width="1.51"/><path d="M570,1062L703,1037L620,943Z" fill="#328441" stroke="#328441" stroke-width="1.51"/><path d="M445,335L318,355L390,447Z" fill="#2d903e" stroke="#2d903e" stroke-width="1.51"/><path d="M440,146L413,243L513,254Z" fill="#2d7e3a" stroke="#2d7e3a" stroke-width="1.51"/><path d="M1316,177L1223,223L1278,345Z" fill="#2d753b" stroke="#2d753b" stroke-width="1.51"/><path d="M1223,223L1218,149L1116,196Z" fill="#347b41" stroke="#347b41" stroke-width="1.51"/><path d="M853,-35L752,7L880,107Z" fill="#56b165" stroke="#56b165" stroke-width="1.51"/><path d="M1356,475L1365,379L1268,434Z" fill="#339045" stroke="#339045" stroke-width="1.51"/><path d="M549,1L546,83L630,68Z" fill="#4fa65c" stroke="#4fa65c" stroke-width="1.51"/><path d="M630,68L546,83L650,234Z" fill="#419d50" stroke="#419d50" stroke-width="1.51"/><path d="M289,535L323,698L432,574Z" fill="#2f873f" stroke="#2f873f" stroke-width="1.51"/><path d="M445,697L339,805L474,784Z" fill="#2e7a3c" stroke="#2e7a3c" stroke-width="1.51"/><path d="M474,784L443,937L565,871Z" fill="#2f793d" stroke="#2f793d" stroke-width="1.51"/><path d="M289,535L432,574L390,447Z" fill="#2e9240" stroke="#2e9240" stroke-width="1.51"/><path d="M1007,-12L853,-35L880,107Z" fill="#56ab64" stroke="#56ab64" stroke-width="1.51"/><path d="M1218,149L1130,65L1116,196Z" fill="#3d854a" stroke="#3d854a" stroke-width="1.51"/><path d="M1275,787L1336,793L1335,635Z" fill="#30713f" stroke="#30713f" stroke-width="1.51"/><path d="M1335,635L1424,537L1322,562Z" fill="#318142" stroke="#318142" stroke-width="1.51"/><path d="M1356,475L1440,406L1365,379Z" fill="#338c44" stroke="#338c44" stroke-width="1.51"/><path d="M1362,947L1336,793L1275,787Z" fill="#2f673c" stroke="#2f673c" stroke-width="1.51"/><path d="M278,490L289,535L390,447Z" fill="#349845" stroke="#349845" stroke-width="1.51"/><path d="M413,243L318,355L445,335Z" fill="#2c853a" stroke="#2c853a" stroke-width="1.51"/><path d="M311,181L318,355L413,243Z" fill="#2c7a38" stroke="#2c7a38" stroke-width="1.51"/><path d="M546,83L440,146L513,254Z" fill="#388c45" stroke="#388c45" stroke-width="1.51"/><path d="M339,805L443,937L474,784Z" fill="#2e733a" stroke="#2e733a" stroke-width="1.51"/><path d="M1203,1071L1230,955L1152,954Z" fill="#2f6a3d" stroke="#2f6a3d" stroke-width="1.51"/><path d="M1152,954L1230,955L1275,787Z" fill="#2f683c" stroke="#2f683c" stroke-width="1.51"/><path d="M318,355L278,490L390,447Z" fill="#339a44" stroke="#339a44" stroke-width="1.51"/><path d="M313,889L339,805L196,751Z" fill="#357641" stroke="#357641" stroke-width="1.51"/><path d="M1007,-12L880,107L1035,86Z" fill="#4d9f5c" stroke="#4d9f5c" stroke-width="1.51"/><path d="M752,7L618,-2L630,68Z" fill="#57b565" stroke="#57b565" stroke-width="1.51"/><path d="M1130,65L1007,-12L1035,86Z" fill="#4e9a5c" stroke="#4e9a5c" stroke-width="1.51"/><path d="M339,805L323,698L196,751Z" fill="#357c42" stroke="#357c42" stroke-width="1.51"/><path d="M323,698L339,805L445,697Z" fill="#2d773b" stroke="#2d773b" stroke-width="1.51"/><path d="M1497,726L1424,537L1335,635Z" fill="#307740" stroke="#307740" stroke-width="1.51"/><path d="M546,83L463,-10L440,146Z" fill="#499854" stroke="#499854" stroke-width="1.51"/><path d="M749,-83L618,-2L752,7Z" fill="#5dbe6c" stroke="#5dbe6c" stroke-width="1.51"/><path d="M1218,149L1218,-9L1130,65Z" fill="#498e56" stroke="#498e56" stroke-width="1.51"/><path d="M1130,65L1080,-50L1007,-12Z" fill="#56a064" stroke="#56a064" stroke-width="1.51"/><path d="M1365,379L1316,177L1278,345Z" fill="#2f7b3d" stroke="#2f7b3d" stroke-width="1.51"/><path d="M1443,349L1316,177L1365,379Z" fill="#2f783c" stroke="#2f783c" stroke-width="1.51"/><path d="M703,1037L1134,1068L966,1022Z" fill="#317c41" stroke="#317c41" stroke-width="1.51"/><path d="M443,937L570,1062L620,943Z" fill="#307b3e" stroke="#307b3e" stroke-width="1.51"/><path d="M966,1022L1134,1068L1152,954Z" fill="#30703e" stroke="#30703e" stroke-width="1.51"/><path d="M570,1062L1134,1068L703,1037Z" fill="#338743" stroke="#338743" stroke-width="1.51"/><path d="M1424,537L1440,406L1356,475Z" fill="#338d45" stroke="#338d45" stroke-width="1.51"/><path d="M618,-2L549,1L630,68Z" fill="#55ae62" stroke="#55ae62" stroke-width="1.51"/><path d="M521,-102L549,1L618,-2Z" fill="#58ad65" stroke="#58ad65" stroke-width="1.51"/><path d="M1440,406L1443,349L1365,379Z" fill="#318341" stroke="#318341" stroke-width="1.51"/><path d="M853,-35L749,-83L752,7Z" fill="#5cba6b" stroke="#5cba6b" stroke-width="1.51"/><path d="M914,-136L749,-83L853,-35Z" fill="#5bb569" stroke="#5bb569" stroke-width="1.51"/><path d="M1007,-12L914,-136L853,-35Z" fill="#59ad68" stroke="#59ad68" stroke-width="1.51"/><path d="M1218,-9L1080,-50L1130,65Z" fill="#559c63" stroke="#559c63" stroke-width="1.51"/><path d="M1336,793L1438,775L1335,635Z" fill="#306f3e" stroke="#306f3e" stroke-width="1.51"/><path d="M1424,537L1617,448L1440,406Z" fill="#338c44" stroke="#338c44" stroke-width="1.51"/><path d="M1440,406L1617,448L1443,349Z" fill="#328542" stroke="#328542" stroke-width="1.51"/><path d="M1483,895L1438,775L1336,793Z" fill="#2e643c" stroke="#2e643c" stroke-width="1.51"/><path d="M1362,947L1275,787L1230,955Z" fill="#2e653b" stroke="#2e653b" stroke-width="1.51"/><path d="M443,937L410,1031L570,1062Z" fill="#2f743b" stroke="#2f743b" stroke-width="1.51"/><path d="M339,805L313,889L443,937Z" fill="#2c6a37" stroke="#2c6a37" stroke-width="1.51"/><path d="M193,699L323,698L289,535Z" fill="#398947" stroke="#398947" stroke-width="1.51"/><path d="M278,490L157,583L289,535Z" fill="#3d9a4d" stroke="#3d9a4d" stroke-width="1.51"/><path d="M318,355L213,432L278,490Z" fill="#3a9f4a" stroke="#3a9f4a" stroke-width="1.51"/><path d="M176,349L213,432L318,355Z" fill="#3e9a4b" stroke="#3e9a4b" stroke-width="1.51"/><path d="M311,181L413,243L440,146Z" fill="#307c3b" stroke="#307c3b" stroke-width="1.51"/><path d="M351,73L311,181L440,146Z" fill="#3b8245" stroke="#3b8245" stroke-width="1.51"/><path d="M1134,1068L1203,1071L1152,954Z" fill="#2f6b3d" stroke="#2f6b3d" stroke-width="1.51"/><path d="M570,1062L1203,1071L1134,1068Z" fill="#317940" stroke="#317940" stroke-width="1.51"/><path d="M1080,-50L1013,-90L1007,-12Z" fill="#57a466" stroke="#57a466" stroke-width="1.51"/><path d="M1080,-50L1158,-166L1013,-90Z" fill="#56a064" stroke="#56a064" stroke-width="1.51"/><path d="M1356,109L1218,-9L1218,149Z" fill="#468852" stroke="#468852" stroke-width="1.51"/><path d="M1356,109L1218,149L1316,177Z" fill="#3a7c47" stroke="#3a7c47" stroke-width="1.51"/><path d="M313,889L410,1031L443,937Z" fill="#2c6a38" stroke="#2c6a38" stroke-width="1.51"/><path d="M1394,1033L1362,947L1230,955Z" fill="#2e623b" stroke="#2e623b" stroke-width="1.51"/><path d="M1437,128L1356,109L1316,177Z" fill="#3b7947" stroke="#3b7947" stroke-width="1.51"/><path d="M549,1L463,-10L546,83Z" fill="#52a45f" stroke="#52a45f" stroke-width="1.51"/><path d="M521,-102L463,-10L549,1Z" fill="#57a763" stroke="#57a763" stroke-width="1.51"/><path d="M157,583L193,699L289,535Z" fill="#40944e" stroke="#40944e" stroke-width="1.51"/><path d="M749,-83L694,-138L618,-2Z" fill="#5cbb6a" stroke="#5cbb6a" stroke-width="1.51"/><path d="M1013,-90L914,-136L1007,-12Z" fill="#58a867" stroke="#58a867" stroke-width="1.51"/><path d="M1158,-166L914,-136L1013,-90Z" fill="#58a466" stroke="#58a466" stroke-width="1.51"/><path d="M311,181L176,349L318,355Z" fill="#368842" stroke="#368842" stroke-width="1.51"/><path d="M463,-10L351,73L440,146Z" fill="#479152" stroke="#479152" stroke-width="1.51"/><path d="M1555,802L1497,726L1438,775Z" fill="#2f683c" stroke="#2f683c" stroke-width="1.51"/><path d="M1438,775L1497,726L1335,635Z" fill="#2f6e3d" stroke="#2f6e3d" stroke-width="1.51"/><path d="M193,699L196,751L323,698Z" fill="#3b8448" stroke="#3b8448" stroke-width="1.51"/><path d="M313,889L273,988L410,1031Z" fill="#2f6a3a" stroke="#2f6a3a" stroke-width="1.51"/><path d="M914,-136L694,-138L749,-83Z" fill="#5cb96b" stroke="#5cb96b" stroke-width="1.51"/><path d="M193,699L104,699L196,751Z" fill="#438b50" stroke="#438b50" stroke-width="1.51"/><path d="M213,432L157,583L278,490Z" fill="#41a151" stroke="#41a151" stroke-width="1.51"/><path d="M213,432L109,447L157,583Z" fill="#49a958" stroke="#49a958" stroke-width="1.51"/><path d="M159,203L176,349L311,181Z" fill="#3b8445" stroke="#3b8445" stroke-width="1.51"/><path d="M1347,-84L1227,-96L1218,-9Z" fill="#549561" stroke="#549561" stroke-width="1.51"/><path d="M1443,349L1455,193L1316,177Z" fill="#2d6c38" stroke="#2d6c38" stroke-width="1.51"/><path d="M1581,192L1455,193L1443,349Z" fill="#2d6b38" stroke="#2d6b38" stroke-width="1.51"/><path d="M1497,726L1540,693L1424,537Z" fill="#30733f" stroke="#30733f" stroke-width="1.51"/><path d="M1555,802L1540,693L1497,726Z" fill="#2f6a3d" stroke="#2f6a3d" stroke-width="1.51"/><path d="M694,-138L521,-102L618,-2Z" fill="#5ab367" stroke="#5ab367" stroke-width="1.51"/><path d="M463,-10L273,-18L351,73Z" fill="#4f945a" stroke="#4f945a" stroke-width="1.51"/><path d="M1455,193L1437,128L1316,177Z" fill="#367241" stroke="#367241" stroke-width="1.51"/><path d="M174,890L273,988L313,889Z" fill="#377242" stroke="#377242" stroke-width="1.51"/><path d="M1362,947L1483,895L1336,793Z" fill="#2e603a" stroke="#2e603a" stroke-width="1.51"/><path d="M1394,1033L1483,895L1362,947Z" fill="#2d5d3a" stroke="#2d5d3a" stroke-width="1.51"/><path d="M1218,-9L1227,-96L1080,-50Z" fill="#559a63" stroke="#559a63" stroke-width="1.51"/><path d="M1368,-24L1218,-9L1356,109Z" fill="#4f8e5c" stroke="#4f8e5c" stroke-width="1.51"/><path d="M1540,693L1582,606L1424,537Z" fill="#317840" stroke="#317840" stroke-width="1.51"/><path d="M1600,93L1477,31L1437,128Z" fill="#447d4f" stroke="#447d4f" stroke-width="1.51"/><path d="M1555,802L1582,606L1540,693Z" fill="#306e3e" stroke="#306e3e" stroke-width="1.51"/><path d="M1203,1071L1394,1033L1230,955Z" fill="#2f653c" stroke="#2f653c" stroke-width="1.51"/><path d="M176,349L109,447L213,432Z" fill="#47a756" stroke="#47a756" stroke-width="1.51"/><path d="M157,583L104,699L193,699Z" fill="#469353" stroke="#469353" stroke-width="1.51"/><path d="M57,289L109,447L176,349Z" fill="#4ba459" stroke="#4ba459" stroke-width="1.51"/><path d="M196,751L174,890L313,889Z" fill="#3b7947" stroke="#3b7947" stroke-width="1.51"/><path d="M109,447L98,577L157,583Z" fill="#4ca75b" stroke="#4ca75b" stroke-width="1.51"/><path d="M1622,932L1555,802L1483,895Z" fill="#2e5e3a" stroke="#2e5e3a" stroke-width="1.51"/><path d="M1483,895L1555,802L1438,775Z" fill="#2e633b" stroke="#2e633b" stroke-width="1.51"/><path d="M98,577L104,699L157,583Z" fill="#4b9b59" stroke="#4b9b59" stroke-width="1.51"/><path d="M46,811L174,890L196,751Z" fill="#458551" stroke="#458551" stroke-width="1.51"/><path d="M169,129L159,203L311,181Z" fill="#448a4e" stroke="#448a4e" stroke-width="1.51"/><path d="M169,129L311,181L351,73Z" fill="#458a4e" stroke="#458a4e" stroke-width="1.51"/><path d="M1477,31L1368,-24L1356,109Z" fill="#4c8658" stroke="#4c8658" stroke-width="1.51"/><path d="M1227,-96L1158,-166L1080,-50Z" fill="#569b63" stroke="#569b63" stroke-width="1.51"/><path d="M914,-136L1158,-166L694,-138Z" fill="#59ae68" stroke="#59ae68" stroke-width="1.51"/><path d="M1347,-84L1158,-166L1227,-96Z" fill="#549662" stroke="#549662" stroke-width="1.51"/><path d="M1622,932L1617,448L1582,606Z" fill="#30723f" stroke="#30723f" stroke-width="1.51"/><path d="M1582,606L1617,448L1424,537Z" fill="#328342" stroke="#328342" stroke-width="1.51"/><path d="M1510,-96L1347,-84L1368,-24Z" fill="#538c5f" stroke="#538c5f" stroke-width="1.51"/><path d="M521,-102L428,-119L463,-10Z" fill="#56a361" stroke="#56a361" stroke-width="1.51"/><path d="M694,-138L428,-119L521,-102Z" fill="#58ac65" stroke="#58ac65" stroke-width="1.51"/><path d="M159,203L57,289L176,349Z" fill="#469351" stroke="#469351" stroke-width="1.51"/><path d="M273,-18L169,129L351,73Z" fill="#52965c" stroke="#52965c" stroke-width="1.51"/><path d="M428,-119L273,-18L463,-10Z" fill="#53995e" stroke="#53995e" stroke-width="1.51"/><path d="M1368,-24L1347,-84L1218,-9Z" fill="#539261" stroke="#539261" stroke-width="1.51"/><path d="M1477,31L1356,109L1437,128Z" fill="#437d4e" stroke="#437d4e" stroke-width="1.51"/><path d="M1394,1033L1455,1064L1483,895Z" fill="#2d5c39" stroke="#2d5c39" stroke-width="1.51"/><path d="M1203,1071L1455,1064L1394,1033Z" fill="#2e613b" stroke="#2e613b" stroke-width="1.51"/><path d="M1581,192L1437,128L1455,193Z" fill="#357040" stroke="#357040" stroke-width="1.51"/><path d="M174,890L169,979L273,988Z" fill="#3c7648" stroke="#3c7648" stroke-width="1.51"/><path d="M273,988L127,1024L410,1031Z" fill="#367041" stroke="#367041" stroke-width="1.51"/><path d="M52,865L169,979L174,890Z" fill="#447d50" stroke="#447d50" stroke-width="1.51"/><path d="M1623,295L1581,192L1443,349Z" fill="#2e703a" stroke="#2e703a" stroke-width="1.51"/><path d="M1617,448L1623,295L1443,349Z" fill="#317f40" stroke="#317f40" stroke-width="1.51"/><path d="M109,447L8,429L98,577Z" fill="#53b362" stroke="#53b362" stroke-width="1.51"/><path d="M-27,763L46,811L104,699Z" fill="#50945d" stroke="#50945d" stroke-width="1.51"/><path d="M74,206L57,289L159,203Z" fill="#488e52" stroke="#488e52" stroke-width="1.51"/><path d="M169,129L74,206L159,203Z" fill="#4b9055" stroke="#4b9055" stroke-width="1.51"/><path d="M273,-18L225,-18L169,129Z" fill="#5c9f67" stroke="#5c9f67" stroke-width="1.51"/><path d="M184,-95L225,-18L273,-18Z" fill="#61a46c" stroke="#61a46c" stroke-width="1.51"/><path d="M48,106L74,206L169,129Z" fill="#559960" stroke="#559960" stroke-width="1.51"/><path d="M57,289L8,429L109,447Z" fill="#53ae61" stroke="#53ae61" stroke-width="1.51"/><path d="M104,699L46,811L196,751Z" fill="#488c56" stroke="#488c56" stroke-width="1.51"/><path d="M-1,315L8,429L57,289Z" fill="#55aa62" stroke="#55aa62" stroke-width="1.51"/><path d="M-8,676L104,699L98,577Z" fill="#509c5d" stroke="#509c5d" stroke-width="1.51"/><path d="M46,811L52,865L174,890Z" fill="#498555" stroke="#498555" stroke-width="1.51"/><path d="M46,811L-27,763L52,865Z" fill="#51905e" stroke="#51905e" stroke-width="1.51"/><path d="M-50,563L-8,676L98,577Z" fill="#57a865" stroke="#57a865" stroke-width="1.51"/><path d="M1455,1064L1588,983L1483,895Z" fill="#2d5c39" stroke="#2d5c39" stroke-width="1.51"/><path d="M1555,802L1622,932L1582,606Z" fill="#2f673c" stroke="#2f673c" stroke-width="1.51"/><path d="M52,865L127,1024L169,979Z" fill="#467f51" stroke="#467f51" stroke-width="1.51"/><path d="M169,979L127,1024L273,988Z" fill="#3e7749" stroke="#3e7749" stroke-width="1.51"/><path d="M410,1031L127,1024L570,1062Z" fill="#2c6837" stroke="#2c6837" stroke-width="1.51"/><path d="M1588,983L1622,932L1483,895Z" fill="#2d5c39" stroke="#2d5c39" stroke-width="1.51"/><path d="M1617,448L1622,932L1623,295Z" fill="#328041" stroke="#328041" stroke-width="1.51"/><path d="M1581,192L1600,93L1437,128Z" fill="#3b7546" stroke="#3b7546" stroke-width="1.51"/><path d="M1477,31L1510,-96L1368,-24Z" fill="#528a5f" stroke="#528a5f" stroke-width="1.51"/><path d="M1623,295L1600,93L1581,192Z" fill="#316c3c" stroke="#316c3c" stroke-width="1.51"/><path d="M8,429L-50,563L98,577Z" fill="#59b367" stroke="#59b367" stroke-width="1.51"/><path d="M-12,243L-1,315L57,289Z" fill="#539f5f" stroke="#539f5f" stroke-width="1.51"/><path d="M-12,243L57,289L74,206Z" fill="#4e9659" stroke="#4e9659" stroke-width="1.51"/><path d="M428,-119L326,-170L273,-18Z" fill="#54985f" stroke="#54985f" stroke-width="1.51"/><path d="M58,-3L48,106L169,129Z" fill="#62a56d" stroke="#62a56d" stroke-width="1.51"/><path d="M694,-138L326,-170L428,-119Z" fill="#56a462" stroke="#56a462" stroke-width="1.51"/><path d="M1158,-166L326,-170L694,-138Z" fill="#5dbf6c" stroke="#5dbf6c" stroke-width="1.51"/><path d="M-8,676L-27,763L104,699Z" fill="#539a60" stroke="#539a60" stroke-width="1.51"/><path d="M-127,593L-50,563L-189,486Z" fill="#5ab269" stroke="#5ab269" stroke-width="1.51"/><path d="M-135,683L-27,763L-8,676Z" fill="#569d64" stroke="#569d64" stroke-width="1.51"/><path d="M52,865L-6,932L127,1024Z" fill="#4c8458" stroke="#4c8458" stroke-width="1.51"/><path d="M58,-3L169,129L225,-18Z" fill="#62a56e" stroke="#62a56e" stroke-width="1.51"/><path d="M-189,486L-50,563L8,429Z" fill="#5cb96b" stroke="#5cb96b" stroke-width="1.51"/><path d="M48,106L-12,243L74,206Z" fill="#55995f" stroke="#55995f" stroke-width="1.51"/><path d="M326,-170L184,-95L273,-18Z" fill="#5da068" stroke="#5da068" stroke-width="1.51"/><path d="M1601,-44L1510,-96L1477,31Z" fill="#528a5f" stroke="#528a5f" stroke-width="1.51"/><path d="M1347,-84L1510,-96L1158,-166Z" fill="#539060" stroke="#539060" stroke-width="1.51"/><path d="M-27,763L-6,932L52,865Z" fill="#528e5f" stroke="#528e5f" stroke-width="1.51"/><path d="M1600,93L1601,-44L1477,31Z" fill="#4e865a" stroke="#4e865a" stroke-width="1.51"/><path d="M1623,295L1601,-44L1600,93Z" fill="#3f784a" stroke="#3f784a" stroke-width="1.51"/><path d="M184,-95L58,-3L225,-18Z" fill="#68ab74" stroke="#68ab74" stroke-width="1.51"/><path d="M-53,77L-104,196L-12,243Z" fill="#5b9f66" stroke="#5b9f66" stroke-width="1.51"/><path d="M-162,872L-17,998L-6,932Z" fill="#528a5f" stroke="#528a5f" stroke-width="1.51"/><path d="M-50,563L-127,593L-8,676Z" fill="#58a867" stroke="#58a867" stroke-width="1.51"/><path d="M-189,486L8,429L-186,352Z" fill="#5cba6a" stroke="#5cba6a" stroke-width="1.51"/><path d="M-104,196L-1,315L-12,243Z" fill="#539b5e" stroke="#539b5e" stroke-width="1.51"/><path d="M-6,932L-17,998L127,1024Z" fill="#4e875b" stroke="#4e875b" stroke-width="1.51"/><path d="M-144,796L-6,932L-27,763Z" fill="#539060" stroke="#539060" stroke-width="1.51"/><path d="M1601,-44L1589,-120L1510,-96Z" fill="#528a5f" stroke="#528a5f" stroke-width="1.51"/><path d="M1510,-96L1589,-120L1158,-166Z" fill="#528b5f" stroke="#528b5f" stroke-width="1.51"/><path d="M-127,593L-135,683L-8,676Z" fill="#57a365" stroke="#57a365" stroke-width="1.51"/><path d="M-53,77L-12,243L48,106Z" fill="#61a46c" stroke="#61a46c" stroke-width="1.51"/><path d="M-127,593L-189,486L-135,683Z" fill="#59ac68" stroke="#59ac68" stroke-width="1.51"/><path d="M58,-3L-53,77L48,106Z" fill="#6caf79" stroke="#6caf79" stroke-width="1.51"/><path d="M-52,5L-53,77L58,-3Z" fill="#74b682" stroke="#74b682" stroke-width="1.51"/><path d="M-189,486L-144,796L-135,683Z" fill="#57a265" stroke="#57a265" stroke-width="1.51"/><path d="M-135,683L-144,796L-27,763Z" fill="#559963" stroke="#559963" stroke-width="1.51"/><path d="M-186,352L8,429L-1,315Z" fill="#59b066" stroke="#59b066" stroke-width="1.51"/><path d="M184,-95L52,-137L58,-3Z" fill="#6eb17b" stroke="#6eb17b" stroke-width="1.51"/><path d="M326,-170L52,-137L184,-95Z" fill="#65a871" stroke="#65a871" stroke-width="1.51"/><path d="M-47,-98L-52,5L58,-3Z" fill="#79bb87" stroke="#79bb87" stroke-width="1.51"/><path d="M-53,77L-176,130L-104,196Z" fill="#62a56e" stroke="#62a56e" stroke-width="1.51"/><path d="M-104,196L-186,352L-1,315Z" fill="#55a261" stroke="#55a261" stroke-width="1.51"/><path d="M-176,130L-186,352L-104,196Z" fill="#52965d" stroke="#52965d" stroke-width="1.51"/><path d="M-144,796L-162,872L-6,932Z" fill="#538d60" stroke="#538d60" stroke-width="1.51"/><path d="M-189,486L-162,872L-144,796Z" fill="#569c63" stroke="#569c63" stroke-width="1.51"/><path d="M-52,5L-131,32L-53,77Z" fill="#72b47f" stroke="#72b47f" stroke-width="1.51"/><path d="M52,-137L-47,-98L58,-3Z" fill="#77b984" stroke="#77b984" stroke-width="1.51"/><path d="M-47,-98L-131,32L-52,5Z" fill="#79bb87" stroke="#79bb87" stroke-width="1.51"/><path d="M-131,32L-176,130L-53,77Z" fill="#6bae78" stroke="#6bae78" stroke-width="1.51"/><path d="M-17,998L-165,1048L127,1024Z" fill="#528a5f" stroke="#528a5f" stroke-width="1.51"/><path d="M127,1024L-165,1048L570,1062Z" fill="#3f794b" stroke="#3f794b" stroke-width="1.51"/><path d="M-162,872L-165,1048L-17,998Z" fill="#528a5f" stroke="#528a5f" stroke-width="1.51"/><path d="M-189,486L-165,1048L-162,872Z" fill="#549461" stroke="#549461" stroke-width="1.51"/><path d="M-131,32L-134,-145L-176,130Z" fill="#78ba86" stroke="#78ba86" stroke-width="1.51"/><path d="M-47,-98L-134,-145L-131,32Z" fill="#79bb87" stroke="#79bb87" stroke-width="1.51"/><path d="M52,-137L-134,-145L-47,-98Z" fill="#79bb87" stroke="#79bb87" stroke-width="1.51"/><path d="M326,-170L-134,-145L52,-137Z" fill="#70b27d" stroke="#70b27d" stroke-width="1.51"/></svg>